<mxfile host="app.diagrams.net" modified="2021-10-09T02:41:00.279Z" agent="5.0 (Windows NT 10.0; Win64; x64) AppleWebKit/537.36 (KHTML, like Gecko) Chrome/94.0.4606.71 Safari/537.36" etag="oDJZeM5EuKfEhSi-x5vo" version="15.4.3" type="github">
  <diagram id="U7A5T8mxpBsJbfcIHRZb" name="Page-1">
    <mxGraphModel dx="1422" dy="802" grid="1" gridSize="10" guides="1" tooltips="1" connect="1" arrows="1" fold="1" page="1" pageScale="1" pageWidth="827" pageHeight="1169" math="0" shadow="0">
      <root>
        <mxCell id="0" />
        <mxCell id="1" parent="0" />
        <mxCell id="KlpRbUySqW5iVbJVWLdu-1" value="" style="whiteSpace=wrap;html=1;aspect=fixed;" vertex="1" parent="1">
          <mxGeometry x="50" y="50" width="80" height="80" as="geometry" />
        </mxCell>
      </root>
    </mxGraphModel>
  </diagram>
</mxfile>
